<svg width="199" height="78" viewBox="0 0 199 78" fill="none" xmlns="http://www.w3.org/2000/svg">
<g filter="url(#filter0_di_23447_1093)">
<rect x="32.0001" y="28.2117" width="24" height="24" rx="4" transform="rotate(-15 32.0001 28.2117)" fill="white"/>
</g>
<path d="M46.9094 40.0556L43.8449 34.8533L44.7368 34.6144L46.9978 38.6732L47.05 38.6592L47.0226 34.0019L47.9062 33.7651L50.2119 37.8149L50.2641 37.8009L50.1893 33.1534L51.0839 32.9137L51.0284 38.952L50.1749 39.1806L47.8643 35.2881L47.8204 35.2999L47.7656 39.8262L46.9094 40.0556Z" fill="#CD5BC6" fill-opacity="0.6"/>
<g filter="url(#filter1_di_23447_1093)">
<rect x="95.2118" y="2" width="24" height="24" rx="4" transform="rotate(15 95.2118 2)" fill="white"/>
</g>
<path d="M101.655 19.201L100.755 18.9598L104.283 13.8818L105.263 14.1443L105.78 20.3061L104.88 20.065L104.523 15.0401L104.479 15.0283L101.655 19.201ZM102.396 17.0407L105.316 17.823L105.124 18.5365L102.205 17.7541L102.396 17.0407Z" fill="#CD5BC6" fill-opacity="0.6"/>
<g filter="url(#filter2_di_23447_1093)">
<rect x="131.212" y="27" width="24" height="24" rx="4" transform="rotate(15 131.212 27)" fill="white"/>
</g>
<path d="M142.092 40.6808C142.133 40.4131 142.066 40.1795 141.892 39.98C141.719 39.7786 141.471 39.6348 141.149 39.5485C140.918 39.4867 140.709 39.4699 140.521 39.498C140.334 39.5242 140.176 39.588 140.049 39.6892C139.925 39.7891 139.841 39.9186 139.798 40.0778C139.762 40.2113 139.763 40.3349 139.799 40.4485C139.837 40.5626 139.898 40.6664 139.983 40.7597C140.07 40.8516 140.167 40.9355 140.275 41.0113C140.382 41.0852 140.487 41.1506 140.59 41.2075L141.1 41.4972C141.268 41.5891 141.436 41.6979 141.604 41.8234C141.772 41.9489 141.921 42.0945 142.049 42.2602C142.177 42.4259 142.266 42.6125 142.316 42.8201C142.368 43.0282 142.361 43.2584 142.293 43.5109C142.208 43.8292 142.05 44.0898 141.819 44.2926C141.59 44.496 141.301 44.6273 140.951 44.6867C140.604 44.7466 140.211 44.7177 139.772 44.6C139.351 44.4873 139.005 44.3229 138.733 44.1071C138.462 43.8912 138.272 43.6373 138.164 43.3456C138.056 43.0521 138.039 42.7337 138.111 42.3903L138.962 42.6183C138.924 42.8257 138.944 43.0126 139.023 43.1789C139.104 43.3438 139.227 43.4834 139.39 43.5978C139.556 43.7109 139.748 43.7966 139.965 43.8549C140.205 43.9191 140.428 43.9387 140.635 43.9137C140.844 43.8874 141.021 43.821 141.165 43.7145C141.31 43.6062 141.406 43.4606 141.455 43.2777C141.5 43.1112 141.489 42.9622 141.422 42.8306C141.357 42.6995 141.254 42.5776 141.111 42.4649C140.971 42.3528 140.807 42.2432 140.62 42.1362L140.005 41.7772C139.587 41.534 139.279 41.2582 139.079 40.9498C138.881 40.6419 138.835 40.2922 138.94 39.9007C139.027 39.5769 139.19 39.3178 139.43 39.1234C139.671 38.9289 139.959 38.8051 140.295 38.752C140.631 38.697 140.987 38.72 141.364 38.821C141.745 38.9229 142.063 39.0797 142.318 39.2911C142.575 39.5031 142.756 39.7487 142.861 40.028C142.968 40.3054 142.984 40.5961 142.91 40.8999L142.092 40.6808Z" fill="#CD5BC6" fill-opacity="0.6"/>
<g filter="url(#filter3_di_23447_1093)">
<rect x="171.588" y="28" width="10" height="10" rx="2" transform="rotate(15 171.588 28)" fill="white"/>
</g>
<g filter="url(#filter4_di_23447_1093)">
<rect x="187.588" y="62" width="10" height="10" rx="2" transform="rotate(15 187.588 62)" fill="white"/>
</g>
<g filter="url(#filter5_f_23447_1093)">
<rect x="2.07043" y="34" width="4" height="4" rx="1" transform="rotate(15 2.07043 34)" fill="white" fill-opacity="0.5"/>
</g>
<g filter="url(#filter6_f_23447_1093)">
<rect x="90.0001" y="50.0706" width="4" height="4" rx="1" transform="rotate(-15 90.0001 50.0706)" fill="white" fill-opacity="0.5"/>
</g>
<g filter="url(#filter7_f_23447_1093)">
<rect x="144" y="72.0353" width="4" height="4" rx="1" transform="rotate(-15 144 72.0353)" fill="white" fill-opacity="0.5"/>
</g>
<g filter="url(#filter8_f_23447_1093)">
<rect x="174" y="54.0353" width="4" height="4" rx="1" transform="rotate(-15 174 54.0353)" fill="white" fill-opacity="0.5"/>
</g>
<g filter="url(#filter9_f_23447_1093)">
<rect x="66.0001" y="71.0353" width="4" height="4" rx="1" transform="rotate(-15 66.0001 71.0353)" fill="white" fill-opacity="0.5"/>
</g>
<defs>
<filter id="filter0_di_23447_1093" x="28.8981" y="20.8979" width="35.5979" height="35.5979" filterUnits="userSpaceOnUse" color-interpolation-filters="sRGB">
<feFlood flood-opacity="0" result="BackgroundImageFix"/>
<feColorMatrix in="SourceAlpha" type="matrix" values="0 0 0 0 0 0 0 0 0 0 0 0 0 0 0 0 0 0 127 0" result="hardAlpha"/>
<feOffset dy="2"/>
<feGaussianBlur stdDeviation="2"/>
<feComposite in2="hardAlpha" operator="out"/>
<feColorMatrix type="matrix" values="0 0 0 0 0.890196 0 0 0 0 0.756863 0 0 0 0 0.847059 0 0 0 0.6 0"/>
<feBlend mode="normal" in2="BackgroundImageFix" result="effect1_dropShadow_23447_1093"/>
<feBlend mode="normal" in="SourceGraphic" in2="effect1_dropShadow_23447_1093" result="shape"/>
<feColorMatrix in="SourceAlpha" type="matrix" values="0 0 0 0 0 0 0 0 0 0 0 0 0 0 0 0 0 0 127 0" result="hardAlpha"/>
<feOffset dx="2" dy="-2"/>
<feGaussianBlur stdDeviation="1"/>
<feComposite in2="hardAlpha" operator="arithmetic" k2="-1" k3="1"/>
<feColorMatrix type="matrix" values="0 0 0 0 0.976471 0 0 0 0 0.92549 0 0 0 0 0.992157 0 0 0 1 0"/>
<feBlend mode="normal" in2="shape" result="effect2_innerShadow_23447_1093"/>
</filter>
<filter id="filter1_di_23447_1093" x="85.8981" y="0.897949" width="35.5979" height="35.5979" filterUnits="userSpaceOnUse" color-interpolation-filters="sRGB">
<feFlood flood-opacity="0" result="BackgroundImageFix"/>
<feColorMatrix in="SourceAlpha" type="matrix" values="0 0 0 0 0 0 0 0 0 0 0 0 0 0 0 0 0 0 127 0" result="hardAlpha"/>
<feOffset dy="2"/>
<feGaussianBlur stdDeviation="2"/>
<feComposite in2="hardAlpha" operator="out"/>
<feColorMatrix type="matrix" values="0 0 0 0 0.890196 0 0 0 0 0.756863 0 0 0 0 0.847059 0 0 0 0.6 0"/>
<feBlend mode="normal" in2="BackgroundImageFix" result="effect1_dropShadow_23447_1093"/>
<feBlend mode="normal" in="SourceGraphic" in2="effect1_dropShadow_23447_1093" result="shape"/>
<feColorMatrix in="SourceAlpha" type="matrix" values="0 0 0 0 0 0 0 0 0 0 0 0 0 0 0 0 0 0 127 0" result="hardAlpha"/>
<feOffset dx="2" dy="-2"/>
<feGaussianBlur stdDeviation="1"/>
<feComposite in2="hardAlpha" operator="arithmetic" k2="-1" k3="1"/>
<feColorMatrix type="matrix" values="0 0 0 0 0.976471 0 0 0 0 0.92549 0 0 0 0 0.992157 0 0 0 1 0"/>
<feBlend mode="normal" in2="shape" result="effect2_innerShadow_23447_1093"/>
</filter>
<filter id="filter2_di_23447_1093" x="121.898" y="25.8979" width="35.5979" height="35.5979" filterUnits="userSpaceOnUse" color-interpolation-filters="sRGB">
<feFlood flood-opacity="0" result="BackgroundImageFix"/>
<feColorMatrix in="SourceAlpha" type="matrix" values="0 0 0 0 0 0 0 0 0 0 0 0 0 0 0 0 0 0 127 0" result="hardAlpha"/>
<feOffset dy="2"/>
<feGaussianBlur stdDeviation="2"/>
<feComposite in2="hardAlpha" operator="out"/>
<feColorMatrix type="matrix" values="0 0 0 0 0.890196 0 0 0 0 0.756863 0 0 0 0 0.847059 0 0 0 0.6 0"/>
<feBlend mode="normal" in2="BackgroundImageFix" result="effect1_dropShadow_23447_1093"/>
<feBlend mode="normal" in="SourceGraphic" in2="effect1_dropShadow_23447_1093" result="shape"/>
<feColorMatrix in="SourceAlpha" type="matrix" values="0 0 0 0 0 0 0 0 0 0 0 0 0 0 0 0 0 0 127 0" result="hardAlpha"/>
<feOffset dx="2" dy="-2"/>
<feGaussianBlur stdDeviation="1"/>
<feComposite in2="hardAlpha" operator="arithmetic" k2="-1" k3="1"/>
<feColorMatrix type="matrix" values="0 0 0 0 0.976471 0 0 0 0 0.92549 0 0 0 0 0.992157 0 0 0 1 0"/>
<feBlend mode="normal" in2="shape" result="effect2_innerShadow_23447_1093"/>
</filter>
<filter id="filter3_di_23447_1093" x="167.449" y="27.449" width="15.3495" height="16.3495" filterUnits="userSpaceOnUse" color-interpolation-filters="sRGB">
<feFlood flood-opacity="0" result="BackgroundImageFix"/>
<feColorMatrix in="SourceAlpha" type="matrix" values="0 0 0 0 0 0 0 0 0 0 0 0 0 0 0 0 0 0 127 0" result="hardAlpha"/>
<feOffset dy="2"/>
<feGaussianBlur stdDeviation="1"/>
<feComposite in2="hardAlpha" operator="out"/>
<feColorMatrix type="matrix" values="0 0 0 0 0.950716 0 0 0 0 0.814762 0 0 0 0 0.907664 0 0 0 0.6 0"/>
<feBlend mode="normal" in2="BackgroundImageFix" result="effect1_dropShadow_23447_1093"/>
<feBlend mode="normal" in="SourceGraphic" in2="effect1_dropShadow_23447_1093" result="shape"/>
<feColorMatrix in="SourceAlpha" type="matrix" values="0 0 0 0 0 0 0 0 0 0 0 0 0 0 0 0 0 0 127 0" result="hardAlpha"/>
<feOffset dy="-1"/>
<feGaussianBlur stdDeviation="1"/>
<feComposite in2="hardAlpha" operator="arithmetic" k2="-1" k3="1"/>
<feColorMatrix type="matrix" values="0 0 0 0 0.976471 0 0 0 0 0.92549 0 0 0 0 0.992157 0 0 0 1 0"/>
<feBlend mode="normal" in2="shape" result="effect2_innerShadow_23447_1093"/>
</filter>
<filter id="filter4_di_23447_1093" x="183.449" y="61.449" width="15.3495" height="16.3495" filterUnits="userSpaceOnUse" color-interpolation-filters="sRGB">
<feFlood flood-opacity="0" result="BackgroundImageFix"/>
<feColorMatrix in="SourceAlpha" type="matrix" values="0 0 0 0 0 0 0 0 0 0 0 0 0 0 0 0 0 0 127 0" result="hardAlpha"/>
<feOffset dy="2"/>
<feGaussianBlur stdDeviation="1"/>
<feComposite in2="hardAlpha" operator="out"/>
<feColorMatrix type="matrix" values="0 0 0 0 0.950716 0 0 0 0 0.814762 0 0 0 0 0.907664 0 0 0 0.6 0"/>
<feBlend mode="normal" in2="BackgroundImageFix" result="effect1_dropShadow_23447_1093"/>
<feBlend mode="normal" in="SourceGraphic" in2="effect1_dropShadow_23447_1093" result="shape"/>
<feColorMatrix in="SourceAlpha" type="matrix" values="0 0 0 0 0 0 0 0 0 0 0 0 0 0 0 0 0 0 127 0" result="hardAlpha"/>
<feOffset dy="-1"/>
<feGaussianBlur stdDeviation="1"/>
<feComposite in2="hardAlpha" operator="arithmetic" k2="-1" k3="1"/>
<feColorMatrix type="matrix" values="0 0 0 0 0.976471 0 0 0 0 0.92549 0 0 0 0 0.992157 0 0 0 1 0"/>
<feBlend mode="normal" in2="shape" result="effect2_innerShadow_23447_1093"/>
</filter>
<filter id="filter5_f_23447_1093" x="0.259659" y="33.2245" width="6.44998" height="6.44995" filterUnits="userSpaceOnUse" color-interpolation-filters="sRGB">
<feFlood flood-opacity="0" result="BackgroundImageFix"/>
<feBlend mode="normal" in="SourceGraphic" in2="BackgroundImageFix" result="shape"/>
<feGaussianBlur stdDeviation="0.5" result="effect1_foregroundBlur_23447_1093"/>
</filter>
<filter id="filter6_f_23447_1093" x="89.2246" y="48.2598" width="6.44998" height="6.44995" filterUnits="userSpaceOnUse" color-interpolation-filters="sRGB">
<feFlood flood-opacity="0" result="BackgroundImageFix"/>
<feBlend mode="normal" in="SourceGraphic" in2="BackgroundImageFix" result="shape"/>
<feGaussianBlur stdDeviation="0.5" result="effect1_foregroundBlur_23447_1093"/>
</filter>
<filter id="filter7_f_23447_1093" x="143.225" y="70.2245" width="6.44998" height="6.44995" filterUnits="userSpaceOnUse" color-interpolation-filters="sRGB">
<feFlood flood-opacity="0" result="BackgroundImageFix"/>
<feBlend mode="normal" in="SourceGraphic" in2="BackgroundImageFix" result="shape"/>
<feGaussianBlur stdDeviation="0.5" result="effect1_foregroundBlur_23447_1093"/>
</filter>
<filter id="filter8_f_23447_1093" x="173.225" y="52.2245" width="6.44998" height="6.44995" filterUnits="userSpaceOnUse" color-interpolation-filters="sRGB">
<feFlood flood-opacity="0" result="BackgroundImageFix"/>
<feBlend mode="normal" in="SourceGraphic" in2="BackgroundImageFix" result="shape"/>
<feGaussianBlur stdDeviation="0.5" result="effect1_foregroundBlur_23447_1093"/>
</filter>
<filter id="filter9_f_23447_1093" x="65.2246" y="69.2245" width="6.44998" height="6.44995" filterUnits="userSpaceOnUse" color-interpolation-filters="sRGB">
<feFlood flood-opacity="0" result="BackgroundImageFix"/>
<feBlend mode="normal" in="SourceGraphic" in2="BackgroundImageFix" result="shape"/>
<feGaussianBlur stdDeviation="0.5" result="effect1_foregroundBlur_23447_1093"/>
</filter>
</defs>
</svg>
