<svg width="1396" height="190" viewBox="0 0 1396 190" fill="none" xmlns="http://www.w3.org/2000/svg">
<g filter="url(#filter0_di_16980_3304)">
<rect x="478" y="15.4233" width="48" height="48" rx="8" transform="rotate(-15 478 15.4233)" fill="white"/>
</g>
<path d="M510.975 37.2303L507.336 38.2053L504.324 26.9655L508.078 25.9596C509.18 25.6645 510.186 25.6361 511.096 25.8744C512.006 26.109 512.784 26.5889 513.429 27.314C514.077 28.0345 514.558 28.9783 514.87 30.1454C515.184 31.3163 515.24 32.3798 515.037 33.336C514.838 34.2913 514.397 35.1036 513.714 35.773C513.029 36.4387 512.116 36.9245 510.975 37.2303ZM508.635 36.2691L510.484 35.7735C511.34 35.5441 512.009 35.1924 512.49 34.7185C512.97 34.2409 513.268 33.657 513.385 32.9669C513.501 32.273 513.44 31.4816 513.202 30.5925C512.966 29.7107 512.624 29.0002 512.178 28.461C511.735 27.9209 511.195 27.5657 510.557 27.3954C509.919 27.2251 509.191 27.2498 508.371 27.4694L506.417 27.9929L508.635 36.2691Z" fill="#CD5BC6" fill-opacity="0.6"/>
<g filter="url(#filter1_di_16980_3304)">
<rect x="98" y="115.423" width="48" height="48" rx="8" transform="rotate(-15 98 115.423)" fill="white"/>
</g>
<path d="M127.56 138.145L121.431 127.741L123.214 127.263L127.737 135.38L127.841 135.352L127.786 126.038L129.553 125.564L134.165 133.664L134.269 133.636L134.12 124.341L135.909 123.861L135.798 135.938L134.091 136.395L129.47 128.61L129.382 128.634L129.272 137.687L127.56 138.145Z" fill="#CD5BC6" fill-opacity="0.6"/>
<g filter="url(#filter2_di_16980_3304)">
<rect x="1027" y="15.4233" width="48" height="48" rx="8" transform="rotate(-15 1027 15.4233)" fill="white"/>
</g>
<path d="M1049.16 39.7379C1048.34 39.9565 1047.59 39.9599 1046.9 39.7482C1046.22 39.5319 1045.63 39.1384 1045.14 38.5678C1044.65 37.9972 1044.29 37.2893 1044.07 36.4441C1043.84 35.5879 1043.79 34.7893 1043.94 34.0481C1044.09 33.3032 1044.4 32.6676 1044.89 32.1412C1045.38 31.6148 1046.02 31.2452 1046.81 31.0325C1047.45 30.8609 1048.05 30.8269 1048.62 30.9304C1049.18 31.0302 1049.67 31.2512 1050.1 31.5933C1050.52 31.9344 1050.84 32.3806 1051.05 32.9321L1049.45 33.36C1049.26 32.9884 1048.96 32.702 1048.57 32.5009C1048.19 32.2989 1047.73 32.268 1047.21 32.4081C1046.75 32.5307 1046.38 32.7588 1046.1 33.0924C1045.83 33.4214 1045.65 33.8328 1045.58 34.3265C1045.51 34.8165 1045.55 35.3615 1045.71 35.9616C1045.88 36.5763 1046.11 37.0818 1046.42 37.4782C1046.73 37.8745 1047.08 38.1497 1047.49 38.3037C1047.9 38.4567 1048.33 38.4709 1048.8 38.3464C1049.11 38.2631 1049.38 38.1309 1049.6 37.9498C1049.82 37.7641 1049.99 37.5403 1050.11 37.2783C1050.22 37.0154 1050.28 36.7228 1050.27 36.4005L1051.86 35.9725C1051.95 36.5334 1051.9 37.0675 1051.72 37.575C1051.54 38.0825 1051.23 38.5255 1050.8 38.904C1050.37 39.2815 1049.83 39.5594 1049.16 39.7379ZM1056.01 28.6853L1056.36 30.0025L1051.76 31.2363L1051.4 29.9191L1056.01 28.6853ZM1052.1 27.5686L1053.74 27.1289L1055.88 35.1032C1055.96 35.4215 1056.07 35.6485 1056.21 35.784C1056.35 35.9158 1056.5 35.9909 1056.66 36.0092C1056.83 36.0229 1057.01 36.0058 1057.19 35.9577C1057.32 35.9224 1057.43 35.8824 1057.52 35.8376C1057.62 35.7929 1057.69 35.7577 1057.74 35.732L1058.4 37.0082C1058.32 37.0702 1058.19 37.1431 1058.03 37.2267C1057.86 37.314 1057.65 37.3948 1057.39 37.4691C1056.96 37.5921 1056.53 37.6231 1056.12 37.5621C1055.7 37.5011 1055.33 37.3332 1055.01 37.0583C1054.69 36.7835 1054.46 36.3918 1054.33 35.8832L1052.1 27.5686ZM1060.08 36.6288L1057.82 28.1989L1059.41 27.7739L1059.77 29.113L1059.86 29.0895C1059.89 28.5946 1060.06 28.1654 1060.38 27.8017C1060.7 27.4333 1061.11 27.183 1061.6 27.0506C1061.71 27.0232 1061.83 26.9945 1061.97 26.9646C1062.11 26.9336 1062.23 26.9129 1062.31 26.9023L1062.73 28.4719C1062.66 28.4713 1062.54 28.4825 1062.36 28.5057C1062.19 28.5251 1062.02 28.5574 1061.85 28.6025C1061.46 28.7065 1061.14 28.8814 1060.88 29.1274C1060.62 29.3688 1060.44 29.6576 1060.35 29.9937C1060.25 30.3261 1060.25 30.6753 1060.34 31.0412L1061.72 36.1891L1060.08 36.6288ZM1064.64 23.3599L1067.65 34.5998L1066.01 35.0395L1063 23.7996L1064.64 23.3599Z" fill="#CD5BC6" fill-opacity="0.6"/>
<g filter="url(#filter3_di_16980_3304)">
<rect x="244.423" y="14" width="48" height="48" rx="8" transform="rotate(15 244.423 14)" fill="white"/>
</g>
<path d="M257.57 47.4361L255.77 46.9537L262.827 36.7977L264.786 37.3227L265.819 49.6463L264.019 49.164L263.306 39.1143L263.218 39.0908L257.57 47.4361ZM259.051 43.1154L264.891 44.6801L264.509 46.107L258.669 44.5424L259.051 43.1154Z" fill="#CD5BC6" fill-opacity="0.6"/>
<g filter="url(#filter4_di_16980_3304)">
<rect x="359.423" y="80" width="48" height="48" rx="8" transform="rotate(15 359.423 80)" fill="white"/>
</g>
<path d="M380.961 106.266C381.041 105.731 380.908 105.264 380.56 104.865C380.213 104.462 379.717 104.174 379.073 104.002C378.612 103.878 378.194 103.844 377.818 103.901C377.443 103.953 377.129 104.081 376.874 104.283C376.625 104.483 376.457 104.742 376.372 105.06C376.3 105.327 376.301 105.574 376.373 105.802C376.449 106.03 376.572 106.237 376.742 106.424C376.916 106.608 377.11 106.776 377.325 106.927C377.54 107.075 377.75 107.206 377.955 107.32L378.976 107.899C379.311 108.083 379.647 108.3 379.983 108.551C380.32 108.802 380.617 109.094 380.873 109.425C381.129 109.756 381.308 110.13 381.408 110.545C381.512 110.961 381.497 111.422 381.361 111.926C381.191 112.563 380.875 113.084 380.413 113.49C379.955 113.897 379.377 114.159 378.678 114.278C377.984 114.398 377.197 114.34 376.319 114.105C375.478 113.879 374.785 113.551 374.242 113.119C373.699 112.687 373.319 112.179 373.103 111.596C372.888 111.009 372.853 110.372 372.997 109.685L374.699 110.141C374.623 110.556 374.664 110.93 374.822 111.262C374.984 111.592 375.229 111.872 375.556 112.1C375.888 112.326 376.271 112.498 376.707 112.614C377.186 112.743 377.632 112.782 378.046 112.732C378.464 112.679 378.817 112.547 379.105 112.334C379.395 112.117 379.588 111.826 379.686 111.46C379.776 111.127 379.754 110.829 379.62 110.566C379.49 110.304 379.283 110.06 378.999 109.835C378.717 109.61 378.39 109.391 378.016 109.177L376.785 108.459C375.95 107.973 375.333 107.421 374.934 106.804C374.538 106.188 374.445 105.489 374.655 104.706C374.829 104.058 375.156 103.54 375.636 103.151C376.117 102.763 376.693 102.515 377.365 102.409C378.037 102.299 378.751 102.345 379.504 102.547C380.265 102.751 380.901 103.064 381.411 103.487C381.925 103.911 382.287 104.402 382.499 104.961C382.711 105.516 382.743 106.097 382.596 106.704L380.961 106.266Z" fill="#CD5BC6" fill-opacity="0.6"/>
<g filter="url(#filter5_di_16980_3304)">
<rect x="1124.42" y="121" width="48" height="48" rx="8" transform="rotate(15 1124.42 121)" fill="white"/>
</g>
<path d="M1134.36 153.843L1134.66 152.712L1142.89 145.647L1136.93 144.05L1137.32 142.59L1145.35 144.743L1145.05 145.873L1136.82 152.939L1142.78 154.536L1142.39 155.996L1134.36 153.843Z" fill="#CD5BC6" fill-opacity="0.6"/>
<g filter="url(#filter6_di_16980_3304)">
<rect x="1221.42" y="44" width="48" height="48" rx="8" transform="rotate(15 1221.42 44)" fill="white"/>
</g>
<path d="M1242.75 71.7668L1241.04 71.308C1241.07 70.9245 1241.03 70.5696 1240.93 70.2435C1240.83 69.9174 1240.67 69.6226 1240.46 69.3591C1240.25 69.0956 1240 68.8713 1239.71 68.6862C1239.41 68.5021 1239.09 68.3621 1238.73 68.266C1238.08 68.0925 1237.46 68.0999 1236.86 68.2883C1236.26 68.4776 1235.73 68.8473 1235.27 69.3972C1234.81 69.948 1234.45 70.6772 1234.21 71.5846C1233.97 72.4993 1233.91 73.3105 1234.03 74.0182C1234.16 74.727 1234.43 75.3109 1234.86 75.7702C1235.29 76.2294 1235.82 76.5448 1236.46 76.7164C1236.82 76.8115 1237.16 76.8541 1237.51 76.8442C1237.86 76.8317 1238.19 76.7652 1238.5 76.6445C1238.81 76.5238 1239.09 76.3503 1239.34 76.124C1239.6 75.8949 1239.81 75.6104 1239.98 75.2705L1241.69 75.7348C1241.45 76.2628 1241.13 76.7238 1240.75 77.1179C1240.36 77.5093 1239.92 77.8184 1239.42 78.0452C1238.93 78.2693 1238.39 78.4028 1237.82 78.4455C1237.25 78.4882 1236.65 78.4268 1236.03 78.2611C1235.06 78.0003 1234.26 77.5375 1233.62 76.8725C1232.98 76.2039 1232.56 75.3791 1232.35 74.398C1232.15 73.4178 1232.21 72.3295 1232.53 71.1331C1232.85 69.933 1233.34 68.9619 1234.01 68.2197C1234.68 67.4739 1235.46 66.9724 1236.35 66.7153C1237.23 66.4546 1238.16 66.4541 1239.13 66.7139C1239.72 66.8737 1240.26 67.1087 1240.73 67.4189C1241.2 67.7264 1241.6 68.1002 1241.93 68.5403C1242.25 68.9767 1242.49 69.4672 1242.63 70.0117C1242.78 70.5526 1242.82 71.1376 1242.75 71.7668Z" fill="#CD5BC6" fill-opacity="0.6"/>
<g filter="url(#filter7_di_16980_3304)">
<rect x="871.423" y="20" width="48" height="48" rx="8" transform="rotate(15 871.423 20)" fill="white"/>
</g>
<path d="M883.683 41.6875L884.359 51.68L884.485 51.7139L890.066 43.3977L891.899 43.8889L884.843 54.045L882.883 53.52L881.85 41.1963L883.683 41.6875Z" fill="#CD5BC6" fill-opacity="0.6"/>
<g filter="url(#filter8_di_16980_3304)">
<rect x="1171.18" y="16" width="20" height="20" rx="4" transform="rotate(15 1171.18 16)" fill="white"/>
</g>
<g filter="url(#filter9_di_16980_3304)">
<rect x="270.176" y="130" width="20" height="20" rx="4" transform="rotate(15 270.176 130)" fill="white"/>
</g>
<g filter="url(#filter10_di_16980_3304)">
<rect x="1361" y="72.1763" width="20" height="20" rx="4" transform="rotate(-15 1361 72.1763)" fill="white"/>
</g>
<g filter="url(#filter11_di_16980_3304)">
<rect x="122" y="42.1763" width="20" height="20" rx="4" transform="rotate(-15 122 42.1763)" fill="white"/>
</g>
<g filter="url(#filter12_di_16980_3304)">
<rect x="4" y="98.1763" width="20" height="20" rx="4" transform="rotate(-15 4 98.1763)" fill="white"/>
</g>
<g filter="url(#filter13_di_16980_3304)">
<rect x="401" y="20.1763" width="20" height="20" rx="4" transform="rotate(-15 401 20.1763)" fill="white"/>
</g>
<g filter="url(#filter14_di_16980_3304)">
<rect x="977" y="112.176" width="20" height="20" rx="4" transform="rotate(-15 977 112.176)" fill="white"/>
</g>
<g filter="url(#filter15_f_16980_3304)">
<rect x="43" y="53.0706" width="8" height="8" rx="1" transform="rotate(-15 43 53.0706)" fill="white" fill-opacity="0.5"/>
</g>
<g filter="url(#filter16_f_16980_3304)">
<rect x="199" y="98.0706" width="8" height="8" rx="1" transform="rotate(-15 199 98.0706)" fill="white" fill-opacity="0.5"/>
</g>
<g filter="url(#filter17_f_16980_3304)">
<rect x="355" y="43.0706" width="8" height="8" rx="1" transform="rotate(-15 355 43.0706)" fill="white" fill-opacity="0.5"/>
</g>
<g filter="url(#filter18_f_16980_3304)">
<rect x="498" y="106.071" width="8" height="8" rx="1" transform="rotate(-15 498 106.071)" fill="white" fill-opacity="0.5"/>
</g>
<g filter="url(#filter19_f_16980_3304)">
<rect x="628" y="38.0706" width="8" height="8" rx="1" transform="rotate(-15 628 38.0706)" fill="white" fill-opacity="0.5"/>
</g>
<g filter="url(#filter20_f_16980_3304)">
<rect x="892" y="122.071" width="8" height="8" rx="1" transform="rotate(-15 892 122.071)" fill="white" fill-opacity="0.5"/>
</g>
<g filter="url(#filter21_f_16980_3304)">
<rect x="810" y="56.0706" width="8" height="8" rx="1" transform="rotate(-15 810 56.0706)" fill="white" fill-opacity="0.5"/>
</g>
<g filter="url(#filter22_f_16980_3304)">
<rect x="969" y="42.0706" width="8" height="8" rx="1" transform="rotate(-15 969 42.0706)" fill="white" fill-opacity="0.5"/>
</g>
<g filter="url(#filter23_f_16980_3304)">
<rect x="1076" y="133.071" width="8" height="8" rx="1" transform="rotate(-15 1076 133.071)" fill="white" fill-opacity="0.5"/>
</g>
<g filter="url(#filter24_f_16980_3304)">
<rect x="1146" y="56.0706" width="8" height="8" rx="1" transform="rotate(-15 1146 56.0706)" fill="white" fill-opacity="0.5"/>
</g>
<g filter="url(#filter25_f_16980_3304)">
<rect x="1235" y="140.071" width="8" height="8" rx="1" transform="rotate(-15 1235 140.071)" fill="white" fill-opacity="0.5"/>
</g>
<g filter="url(#filter26_f_16980_3304)">
<rect x="1321" y="50.0706" width="8" height="8" rx="1" transform="rotate(-15 1321 50.0706)" fill="white" fill-opacity="0.5"/>
</g>
<g filter="url(#filter27_f_16980_3304)">
<rect x="1385" y="125.071" width="8" height="8" rx="1" transform="rotate(-15 1385 125.071)" fill="white" fill-opacity="0.5"/>
</g>
<defs>
<filter id="filter0_di_16980_3304" x="471.796" y="0.795898" width="71.1958" height="71.1958" filterUnits="userSpaceOnUse" color-interpolation-filters="sRGB">
<feFlood flood-opacity="0" result="BackgroundImageFix"/>
<feColorMatrix in="SourceAlpha" type="matrix" values="0 0 0 0 0 0 0 0 0 0 0 0 0 0 0 0 0 0 127 0" result="hardAlpha"/>
<feOffset dy="4"/>
<feGaussianBlur stdDeviation="4"/>
<feComposite in2="hardAlpha" operator="out"/>
<feColorMatrix type="matrix" values="0 0 0 0 0.890196 0 0 0 0 0.756863 0 0 0 0 0.847059 0 0 0 0.6 0"/>
<feBlend mode="normal" in2="BackgroundImageFix" result="effect1_dropShadow_16980_3304"/>
<feBlend mode="normal" in="SourceGraphic" in2="effect1_dropShadow_16980_3304" result="shape"/>
<feColorMatrix in="SourceAlpha" type="matrix" values="0 0 0 0 0 0 0 0 0 0 0 0 0 0 0 0 0 0 127 0" result="hardAlpha"/>
<feOffset dx="4" dy="-4"/>
<feGaussianBlur stdDeviation="2"/>
<feComposite in2="hardAlpha" operator="arithmetic" k2="-1" k3="1"/>
<feColorMatrix type="matrix" values="0 0 0 0 0.976471 0 0 0 0 0.92549 0 0 0 0 0.992157 0 0 0 1 0"/>
<feBlend mode="normal" in2="shape" result="effect2_innerShadow_16980_3304"/>
</filter>
<filter id="filter1_di_16980_3304" x="91.7959" y="100.796" width="71.1958" height="71.1958" filterUnits="userSpaceOnUse" color-interpolation-filters="sRGB">
<feFlood flood-opacity="0" result="BackgroundImageFix"/>
<feColorMatrix in="SourceAlpha" type="matrix" values="0 0 0 0 0 0 0 0 0 0 0 0 0 0 0 0 0 0 127 0" result="hardAlpha"/>
<feOffset dy="4"/>
<feGaussianBlur stdDeviation="4"/>
<feComposite in2="hardAlpha" operator="out"/>
<feColorMatrix type="matrix" values="0 0 0 0 0.890196 0 0 0 0 0.756863 0 0 0 0 0.847059 0 0 0 0.6 0"/>
<feBlend mode="normal" in2="BackgroundImageFix" result="effect1_dropShadow_16980_3304"/>
<feBlend mode="normal" in="SourceGraphic" in2="effect1_dropShadow_16980_3304" result="shape"/>
<feColorMatrix in="SourceAlpha" type="matrix" values="0 0 0 0 0 0 0 0 0 0 0 0 0 0 0 0 0 0 127 0" result="hardAlpha"/>
<feOffset dx="4" dy="-4"/>
<feGaussianBlur stdDeviation="2"/>
<feComposite in2="hardAlpha" operator="arithmetic" k2="-1" k3="1"/>
<feColorMatrix type="matrix" values="0 0 0 0 0.976471 0 0 0 0 0.92549 0 0 0 0 0.992157 0 0 0 1 0"/>
<feBlend mode="normal" in2="shape" result="effect2_innerShadow_16980_3304"/>
</filter>
<filter id="filter2_di_16980_3304" x="1020.8" y="0.795898" width="71.1958" height="71.1958" filterUnits="userSpaceOnUse" color-interpolation-filters="sRGB">
<feFlood flood-opacity="0" result="BackgroundImageFix"/>
<feColorMatrix in="SourceAlpha" type="matrix" values="0 0 0 0 0 0 0 0 0 0 0 0 0 0 0 0 0 0 127 0" result="hardAlpha"/>
<feOffset dy="4"/>
<feGaussianBlur stdDeviation="4"/>
<feComposite in2="hardAlpha" operator="out"/>
<feColorMatrix type="matrix" values="0 0 0 0 0.890674 0 0 0 0 0.758406 0 0 0 0 0.848789 0 0 0 0.6 0"/>
<feBlend mode="normal" in2="BackgroundImageFix" result="effect1_dropShadow_16980_3304"/>
<feBlend mode="normal" in="SourceGraphic" in2="effect1_dropShadow_16980_3304" result="shape"/>
<feColorMatrix in="SourceAlpha" type="matrix" values="0 0 0 0 0 0 0 0 0 0 0 0 0 0 0 0 0 0 127 0" result="hardAlpha"/>
<feOffset dx="-4" dy="-4"/>
<feGaussianBlur stdDeviation="2"/>
<feComposite in2="hardAlpha" operator="arithmetic" k2="-1" k3="1"/>
<feColorMatrix type="matrix" values="0 0 0 0 0.976471 0 0 0 0 0.92549 0 0 0 0 0.992157 0 0 0 1 0"/>
<feBlend mode="normal" in2="shape" result="effect2_innerShadow_16980_3304"/>
</filter>
<filter id="filter3_di_16980_3304" x="225.796" y="11.7959" width="71.1958" height="71.1958" filterUnits="userSpaceOnUse" color-interpolation-filters="sRGB">
<feFlood flood-opacity="0" result="BackgroundImageFix"/>
<feColorMatrix in="SourceAlpha" type="matrix" values="0 0 0 0 0 0 0 0 0 0 0 0 0 0 0 0 0 0 127 0" result="hardAlpha"/>
<feOffset dy="4"/>
<feGaussianBlur stdDeviation="4"/>
<feComposite in2="hardAlpha" operator="out"/>
<feColorMatrix type="matrix" values="0 0 0 0 0.890196 0 0 0 0 0.756863 0 0 0 0 0.847059 0 0 0 0.6 0"/>
<feBlend mode="normal" in2="BackgroundImageFix" result="effect1_dropShadow_16980_3304"/>
<feBlend mode="normal" in="SourceGraphic" in2="effect1_dropShadow_16980_3304" result="shape"/>
<feColorMatrix in="SourceAlpha" type="matrix" values="0 0 0 0 0 0 0 0 0 0 0 0 0 0 0 0 0 0 127 0" result="hardAlpha"/>
<feOffset dx="4" dy="-4"/>
<feGaussianBlur stdDeviation="2"/>
<feComposite in2="hardAlpha" operator="arithmetic" k2="-1" k3="1"/>
<feColorMatrix type="matrix" values="0 0 0 0 0.976471 0 0 0 0 0.92549 0 0 0 0 0.992157 0 0 0 1 0"/>
<feBlend mode="normal" in2="shape" result="effect2_innerShadow_16980_3304"/>
</filter>
<filter id="filter4_di_16980_3304" x="340.796" y="77.7959" width="71.1958" height="71.1958" filterUnits="userSpaceOnUse" color-interpolation-filters="sRGB">
<feFlood flood-opacity="0" result="BackgroundImageFix"/>
<feColorMatrix in="SourceAlpha" type="matrix" values="0 0 0 0 0 0 0 0 0 0 0 0 0 0 0 0 0 0 127 0" result="hardAlpha"/>
<feOffset dy="4"/>
<feGaussianBlur stdDeviation="4"/>
<feComposite in2="hardAlpha" operator="out"/>
<feColorMatrix type="matrix" values="0 0 0 0 0.890196 0 0 0 0 0.756863 0 0 0 0 0.847059 0 0 0 0.6 0"/>
<feBlend mode="normal" in2="BackgroundImageFix" result="effect1_dropShadow_16980_3304"/>
<feBlend mode="normal" in="SourceGraphic" in2="effect1_dropShadow_16980_3304" result="shape"/>
<feColorMatrix in="SourceAlpha" type="matrix" values="0 0 0 0 0 0 0 0 0 0 0 0 0 0 0 0 0 0 127 0" result="hardAlpha"/>
<feOffset dx="4" dy="-4"/>
<feGaussianBlur stdDeviation="2"/>
<feComposite in2="hardAlpha" operator="arithmetic" k2="-1" k3="1"/>
<feColorMatrix type="matrix" values="0 0 0 0 0.976471 0 0 0 0 0.92549 0 0 0 0 0.992157 0 0 0 1 0"/>
<feBlend mode="normal" in2="shape" result="effect2_innerShadow_16980_3304"/>
</filter>
<filter id="filter5_di_16980_3304" x="1105.8" y="118.796" width="71.1958" height="71.1958" filterUnits="userSpaceOnUse" color-interpolation-filters="sRGB">
<feFlood flood-opacity="0" result="BackgroundImageFix"/>
<feColorMatrix in="SourceAlpha" type="matrix" values="0 0 0 0 0 0 0 0 0 0 0 0 0 0 0 0 0 0 127 0" result="hardAlpha"/>
<feOffset dy="4"/>
<feGaussianBlur stdDeviation="4"/>
<feComposite in2="hardAlpha" operator="out"/>
<feColorMatrix type="matrix" values="0 0 0 0 0.890674 0 0 0 0 0.758406 0 0 0 0 0.848789 0 0 0 0.6 0"/>
<feBlend mode="normal" in2="BackgroundImageFix" result="effect1_dropShadow_16980_3304"/>
<feBlend mode="normal" in="SourceGraphic" in2="effect1_dropShadow_16980_3304" result="shape"/>
<feColorMatrix in="SourceAlpha" type="matrix" values="0 0 0 0 0 0 0 0 0 0 0 0 0 0 0 0 0 0 127 0" result="hardAlpha"/>
<feOffset dx="-4" dy="-4"/>
<feGaussianBlur stdDeviation="2"/>
<feComposite in2="hardAlpha" operator="arithmetic" k2="-1" k3="1"/>
<feColorMatrix type="matrix" values="0 0 0 0 0.976471 0 0 0 0 0.92549 0 0 0 0 0.992157 0 0 0 1 0"/>
<feBlend mode="normal" in2="shape" result="effect2_innerShadow_16980_3304"/>
</filter>
<filter id="filter6_di_16980_3304" x="1202.8" y="41.7959" width="71.1958" height="71.1958" filterUnits="userSpaceOnUse" color-interpolation-filters="sRGB">
<feFlood flood-opacity="0" result="BackgroundImageFix"/>
<feColorMatrix in="SourceAlpha" type="matrix" values="0 0 0 0 0 0 0 0 0 0 0 0 0 0 0 0 0 0 127 0" result="hardAlpha"/>
<feOffset dy="4"/>
<feGaussianBlur stdDeviation="4"/>
<feComposite in2="hardAlpha" operator="out"/>
<feColorMatrix type="matrix" values="0 0 0 0 0.890674 0 0 0 0 0.758406 0 0 0 0 0.848789 0 0 0 0.6 0"/>
<feBlend mode="normal" in2="BackgroundImageFix" result="effect1_dropShadow_16980_3304"/>
<feBlend mode="normal" in="SourceGraphic" in2="effect1_dropShadow_16980_3304" result="shape"/>
<feColorMatrix in="SourceAlpha" type="matrix" values="0 0 0 0 0 0 0 0 0 0 0 0 0 0 0 0 0 0 127 0" result="hardAlpha"/>
<feOffset dx="-4" dy="-4"/>
<feGaussianBlur stdDeviation="2"/>
<feComposite in2="hardAlpha" operator="arithmetic" k2="-1" k3="1"/>
<feColorMatrix type="matrix" values="0 0 0 0 0.976471 0 0 0 0 0.92549 0 0 0 0 0.992157 0 0 0 1 0"/>
<feBlend mode="normal" in2="shape" result="effect2_innerShadow_16980_3304"/>
</filter>
<filter id="filter7_di_16980_3304" x="852.796" y="17.7959" width="71.1958" height="71.1958" filterUnits="userSpaceOnUse" color-interpolation-filters="sRGB">
<feFlood flood-opacity="0" result="BackgroundImageFix"/>
<feColorMatrix in="SourceAlpha" type="matrix" values="0 0 0 0 0 0 0 0 0 0 0 0 0 0 0 0 0 0 127 0" result="hardAlpha"/>
<feOffset dy="4"/>
<feGaussianBlur stdDeviation="4"/>
<feComposite in2="hardAlpha" operator="out"/>
<feColorMatrix type="matrix" values="0 0 0 0 0.890674 0 0 0 0 0.758406 0 0 0 0 0.848789 0 0 0 0.6 0"/>
<feBlend mode="normal" in2="BackgroundImageFix" result="effect1_dropShadow_16980_3304"/>
<feBlend mode="normal" in="SourceGraphic" in2="effect1_dropShadow_16980_3304" result="shape"/>
<feColorMatrix in="SourceAlpha" type="matrix" values="0 0 0 0 0 0 0 0 0 0 0 0 0 0 0 0 0 0 127 0" result="hardAlpha"/>
<feOffset dx="-4" dy="-4"/>
<feGaussianBlur stdDeviation="2"/>
<feComposite in2="hardAlpha" operator="arithmetic" k2="-1" k3="1"/>
<feColorMatrix type="matrix" values="0 0 0 0 0.976471 0 0 0 0 0.92549 0 0 0 0 0.992157 0 0 0 1 0"/>
<feBlend mode="normal" in2="shape" result="effect2_innerShadow_16980_3304"/>
</filter>
<filter id="filter8_di_16980_3304" x="1162.9" y="14.8979" width="30.6987" height="32.699" filterUnits="userSpaceOnUse" color-interpolation-filters="sRGB">
<feFlood flood-opacity="0" result="BackgroundImageFix"/>
<feColorMatrix in="SourceAlpha" type="matrix" values="0 0 0 0 0 0 0 0 0 0 0 0 0 0 0 0 0 0 127 0" result="hardAlpha"/>
<feOffset dy="4"/>
<feGaussianBlur stdDeviation="2"/>
<feComposite in2="hardAlpha" operator="out"/>
<feColorMatrix type="matrix" values="0 0 0 0 0.950716 0 0 0 0 0.814762 0 0 0 0 0.907664 0 0 0 0.6 0"/>
<feBlend mode="normal" in2="BackgroundImageFix" result="effect1_dropShadow_16980_3304"/>
<feBlend mode="normal" in="SourceGraphic" in2="effect1_dropShadow_16980_3304" result="shape"/>
<feColorMatrix in="SourceAlpha" type="matrix" values="0 0 0 0 0 0 0 0 0 0 0 0 0 0 0 0 0 0 127 0" result="hardAlpha"/>
<feOffset dy="-2"/>
<feGaussianBlur stdDeviation="2"/>
<feComposite in2="hardAlpha" operator="arithmetic" k2="-1" k3="1"/>
<feColorMatrix type="matrix" values="0 0 0 0 0.976471 0 0 0 0 0.92549 0 0 0 0 0.992157 0 0 0 1 0"/>
<feBlend mode="normal" in2="shape" result="effect2_innerShadow_16980_3304"/>
</filter>
<filter id="filter9_di_16980_3304" x="261.897" y="128.898" width="30.6987" height="32.699" filterUnits="userSpaceOnUse" color-interpolation-filters="sRGB">
<feFlood flood-opacity="0" result="BackgroundImageFix"/>
<feColorMatrix in="SourceAlpha" type="matrix" values="0 0 0 0 0 0 0 0 0 0 0 0 0 0 0 0 0 0 127 0" result="hardAlpha"/>
<feOffset dy="4"/>
<feGaussianBlur stdDeviation="2"/>
<feComposite in2="hardAlpha" operator="out"/>
<feColorMatrix type="matrix" values="0 0 0 0 0.950716 0 0 0 0 0.814762 0 0 0 0 0.907664 0 0 0 0.6 0"/>
<feBlend mode="normal" in2="BackgroundImageFix" result="effect1_dropShadow_16980_3304"/>
<feBlend mode="normal" in="SourceGraphic" in2="effect1_dropShadow_16980_3304" result="shape"/>
<feColorMatrix in="SourceAlpha" type="matrix" values="0 0 0 0 0 0 0 0 0 0 0 0 0 0 0 0 0 0 127 0" result="hardAlpha"/>
<feOffset dy="-2"/>
<feGaussianBlur stdDeviation="2"/>
<feComposite in2="hardAlpha" operator="arithmetic" k2="-1" k3="1"/>
<feColorMatrix type="matrix" values="0 0 0 0 0.976471 0 0 0 0 0.92549 0 0 0 0 0.992157 0 0 0 1 0"/>
<feBlend mode="normal" in2="shape" result="effect2_innerShadow_16980_3304"/>
</filter>
<filter id="filter10_di_16980_3304" x="1357.9" y="65.8979" width="30.6987" height="32.6987" filterUnits="userSpaceOnUse" color-interpolation-filters="sRGB">
<feFlood flood-opacity="0" result="BackgroundImageFix"/>
<feColorMatrix in="SourceAlpha" type="matrix" values="0 0 0 0 0 0 0 0 0 0 0 0 0 0 0 0 0 0 127 0" result="hardAlpha"/>
<feOffset dy="4"/>
<feGaussianBlur stdDeviation="2"/>
<feComposite in2="hardAlpha" operator="out"/>
<feColorMatrix type="matrix" values="0 0 0 0 0.950716 0 0 0 0 0.814762 0 0 0 0 0.907664 0 0 0 0.6 0"/>
<feBlend mode="normal" in2="BackgroundImageFix" result="effect1_dropShadow_16980_3304"/>
<feBlend mode="normal" in="SourceGraphic" in2="effect1_dropShadow_16980_3304" result="shape"/>
<feColorMatrix in="SourceAlpha" type="matrix" values="0 0 0 0 0 0 0 0 0 0 0 0 0 0 0 0 0 0 127 0" result="hardAlpha"/>
<feOffset dy="-2"/>
<feGaussianBlur stdDeviation="2"/>
<feComposite in2="hardAlpha" operator="arithmetic" k2="-1" k3="1"/>
<feColorMatrix type="matrix" values="0 0 0 0 0.976471 0 0 0 0 0.92549 0 0 0 0 0.992157 0 0 0 1 0"/>
<feBlend mode="normal" in2="shape" result="effect2_innerShadow_16980_3304"/>
</filter>
<filter id="filter11_di_16980_3304" x="118.898" y="35.8979" width="30.699" height="32.6987" filterUnits="userSpaceOnUse" color-interpolation-filters="sRGB">
<feFlood flood-opacity="0" result="BackgroundImageFix"/>
<feColorMatrix in="SourceAlpha" type="matrix" values="0 0 0 0 0 0 0 0 0 0 0 0 0 0 0 0 0 0 127 0" result="hardAlpha"/>
<feOffset dy="4"/>
<feGaussianBlur stdDeviation="2"/>
<feComposite in2="hardAlpha" operator="out"/>
<feColorMatrix type="matrix" values="0 0 0 0 0.950716 0 0 0 0 0.814762 0 0 0 0 0.907664 0 0 0 0.6 0"/>
<feBlend mode="normal" in2="BackgroundImageFix" result="effect1_dropShadow_16980_3304"/>
<feBlend mode="normal" in="SourceGraphic" in2="effect1_dropShadow_16980_3304" result="shape"/>
<feColorMatrix in="SourceAlpha" type="matrix" values="0 0 0 0 0 0 0 0 0 0 0 0 0 0 0 0 0 0 127 0" result="hardAlpha"/>
<feOffset dy="-2"/>
<feGaussianBlur stdDeviation="2"/>
<feComposite in2="hardAlpha" operator="arithmetic" k2="-1" k3="1"/>
<feColorMatrix type="matrix" values="0 0 0 0 0.976471 0 0 0 0 0.92549 0 0 0 0 0.992157 0 0 0 1 0"/>
<feBlend mode="normal" in2="shape" result="effect2_innerShadow_16980_3304"/>
</filter>
<filter id="filter12_di_16980_3304" x="0.897949" y="91.8979" width="30.699" height="32.6987" filterUnits="userSpaceOnUse" color-interpolation-filters="sRGB">
<feFlood flood-opacity="0" result="BackgroundImageFix"/>
<feColorMatrix in="SourceAlpha" type="matrix" values="0 0 0 0 0 0 0 0 0 0 0 0 0 0 0 0 0 0 127 0" result="hardAlpha"/>
<feOffset dy="4"/>
<feGaussianBlur stdDeviation="2"/>
<feComposite in2="hardAlpha" operator="out"/>
<feColorMatrix type="matrix" values="0 0 0 0 0.950716 0 0 0 0 0.814762 0 0 0 0 0.907664 0 0 0 0.6 0"/>
<feBlend mode="normal" in2="BackgroundImageFix" result="effect1_dropShadow_16980_3304"/>
<feBlend mode="normal" in="SourceGraphic" in2="effect1_dropShadow_16980_3304" result="shape"/>
<feColorMatrix in="SourceAlpha" type="matrix" values="0 0 0 0 0 0 0 0 0 0 0 0 0 0 0 0 0 0 127 0" result="hardAlpha"/>
<feOffset dy="-2"/>
<feGaussianBlur stdDeviation="2"/>
<feComposite in2="hardAlpha" operator="arithmetic" k2="-1" k3="1"/>
<feColorMatrix type="matrix" values="0 0 0 0 0.976471 0 0 0 0 0.92549 0 0 0 0 0.992157 0 0 0 1 0"/>
<feBlend mode="normal" in2="shape" result="effect2_innerShadow_16980_3304"/>
</filter>
<filter id="filter13_di_16980_3304" x="397.898" y="13.8979" width="30.699" height="32.6987" filterUnits="userSpaceOnUse" color-interpolation-filters="sRGB">
<feFlood flood-opacity="0" result="BackgroundImageFix"/>
<feColorMatrix in="SourceAlpha" type="matrix" values="0 0 0 0 0 0 0 0 0 0 0 0 0 0 0 0 0 0 127 0" result="hardAlpha"/>
<feOffset dy="4"/>
<feGaussianBlur stdDeviation="2"/>
<feComposite in2="hardAlpha" operator="out"/>
<feColorMatrix type="matrix" values="0 0 0 0 0.950716 0 0 0 0 0.814762 0 0 0 0 0.907664 0 0 0 0.6 0"/>
<feBlend mode="normal" in2="BackgroundImageFix" result="effect1_dropShadow_16980_3304"/>
<feBlend mode="normal" in="SourceGraphic" in2="effect1_dropShadow_16980_3304" result="shape"/>
<feColorMatrix in="SourceAlpha" type="matrix" values="0 0 0 0 0 0 0 0 0 0 0 0 0 0 0 0 0 0 127 0" result="hardAlpha"/>
<feOffset dy="-2"/>
<feGaussianBlur stdDeviation="2"/>
<feComposite in2="hardAlpha" operator="arithmetic" k2="-1" k3="1"/>
<feColorMatrix type="matrix" values="0 0 0 0 0.976471 0 0 0 0 0.92549 0 0 0 0 0.992157 0 0 0 1 0"/>
<feBlend mode="normal" in2="shape" result="effect2_innerShadow_16980_3304"/>
</filter>
<filter id="filter14_di_16980_3304" x="973.898" y="105.898" width="30.699" height="32.6987" filterUnits="userSpaceOnUse" color-interpolation-filters="sRGB">
<feFlood flood-opacity="0" result="BackgroundImageFix"/>
<feColorMatrix in="SourceAlpha" type="matrix" values="0 0 0 0 0 0 0 0 0 0 0 0 0 0 0 0 0 0 127 0" result="hardAlpha"/>
<feOffset dy="4"/>
<feGaussianBlur stdDeviation="2"/>
<feComposite in2="hardAlpha" operator="out"/>
<feColorMatrix type="matrix" values="0 0 0 0 0.950716 0 0 0 0 0.814762 0 0 0 0 0.907664 0 0 0 0.6 0"/>
<feBlend mode="normal" in2="BackgroundImageFix" result="effect1_dropShadow_16980_3304"/>
<feBlend mode="normal" in="SourceGraphic" in2="effect1_dropShadow_16980_3304" result="shape"/>
<feColorMatrix in="SourceAlpha" type="matrix" values="0 0 0 0 0 0 0 0 0 0 0 0 0 0 0 0 0 0 127 0" result="hardAlpha"/>
<feOffset dy="-2"/>
<feGaussianBlur stdDeviation="2"/>
<feComposite in2="hardAlpha" operator="arithmetic" k2="-1" k3="1"/>
<feColorMatrix type="matrix" values="0 0 0 0 0.976471 0 0 0 0 0.92549 0 0 0 0 0.992157 0 0 0 1 0"/>
<feBlend mode="normal" in2="shape" result="effect2_innerShadow_16980_3304"/>
</filter>
<filter id="filter15_f_16980_3304" x="42.2246" y="50.2246" width="11.3489" height="11.3489" filterUnits="userSpaceOnUse" color-interpolation-filters="sRGB">
<feFlood flood-opacity="0" result="BackgroundImageFix"/>
<feBlend mode="normal" in="SourceGraphic" in2="BackgroundImageFix" result="shape"/>
<feGaussianBlur stdDeviation="0.5" result="effect1_foregroundBlur_16980_3304"/>
</filter>
<filter id="filter16_f_16980_3304" x="198.225" y="95.2246" width="11.3489" height="11.3489" filterUnits="userSpaceOnUse" color-interpolation-filters="sRGB">
<feFlood flood-opacity="0" result="BackgroundImageFix"/>
<feBlend mode="normal" in="SourceGraphic" in2="BackgroundImageFix" result="shape"/>
<feGaussianBlur stdDeviation="0.5" result="effect1_foregroundBlur_16980_3304"/>
</filter>
<filter id="filter17_f_16980_3304" x="354.225" y="40.2246" width="11.3489" height="11.3489" filterUnits="userSpaceOnUse" color-interpolation-filters="sRGB">
<feFlood flood-opacity="0" result="BackgroundImageFix"/>
<feBlend mode="normal" in="SourceGraphic" in2="BackgroundImageFix" result="shape"/>
<feGaussianBlur stdDeviation="0.5" result="effect1_foregroundBlur_16980_3304"/>
</filter>
<filter id="filter18_f_16980_3304" x="497.225" y="103.225" width="11.3489" height="11.3489" filterUnits="userSpaceOnUse" color-interpolation-filters="sRGB">
<feFlood flood-opacity="0" result="BackgroundImageFix"/>
<feBlend mode="normal" in="SourceGraphic" in2="BackgroundImageFix" result="shape"/>
<feGaussianBlur stdDeviation="0.5" result="effect1_foregroundBlur_16980_3304"/>
</filter>
<filter id="filter19_f_16980_3304" x="627.225" y="35.2246" width="11.3489" height="11.3489" filterUnits="userSpaceOnUse" color-interpolation-filters="sRGB">
<feFlood flood-opacity="0" result="BackgroundImageFix"/>
<feBlend mode="normal" in="SourceGraphic" in2="BackgroundImageFix" result="shape"/>
<feGaussianBlur stdDeviation="0.5" result="effect1_foregroundBlur_16980_3304"/>
</filter>
<filter id="filter20_f_16980_3304" x="891.225" y="119.225" width="11.3489" height="11.3489" filterUnits="userSpaceOnUse" color-interpolation-filters="sRGB">
<feFlood flood-opacity="0" result="BackgroundImageFix"/>
<feBlend mode="normal" in="SourceGraphic" in2="BackgroundImageFix" result="shape"/>
<feGaussianBlur stdDeviation="0.5" result="effect1_foregroundBlur_16980_3304"/>
</filter>
<filter id="filter21_f_16980_3304" x="809.225" y="53.2246" width="11.3489" height="11.3489" filterUnits="userSpaceOnUse" color-interpolation-filters="sRGB">
<feFlood flood-opacity="0" result="BackgroundImageFix"/>
<feBlend mode="normal" in="SourceGraphic" in2="BackgroundImageFix" result="shape"/>
<feGaussianBlur stdDeviation="0.5" result="effect1_foregroundBlur_16980_3304"/>
</filter>
<filter id="filter22_f_16980_3304" x="968.225" y="39.2246" width="11.3489" height="11.3489" filterUnits="userSpaceOnUse" color-interpolation-filters="sRGB">
<feFlood flood-opacity="0" result="BackgroundImageFix"/>
<feBlend mode="normal" in="SourceGraphic" in2="BackgroundImageFix" result="shape"/>
<feGaussianBlur stdDeviation="0.5" result="effect1_foregroundBlur_16980_3304"/>
</filter>
<filter id="filter23_f_16980_3304" x="1075.22" y="130.225" width="11.3489" height="11.3489" filterUnits="userSpaceOnUse" color-interpolation-filters="sRGB">
<feFlood flood-opacity="0" result="BackgroundImageFix"/>
<feBlend mode="normal" in="SourceGraphic" in2="BackgroundImageFix" result="shape"/>
<feGaussianBlur stdDeviation="0.5" result="effect1_foregroundBlur_16980_3304"/>
</filter>
<filter id="filter24_f_16980_3304" x="1145.22" y="53.2246" width="11.3489" height="11.3489" filterUnits="userSpaceOnUse" color-interpolation-filters="sRGB">
<feFlood flood-opacity="0" result="BackgroundImageFix"/>
<feBlend mode="normal" in="SourceGraphic" in2="BackgroundImageFix" result="shape"/>
<feGaussianBlur stdDeviation="0.5" result="effect1_foregroundBlur_16980_3304"/>
</filter>
<filter id="filter25_f_16980_3304" x="1234.22" y="137.225" width="11.3486" height="11.3489" filterUnits="userSpaceOnUse" color-interpolation-filters="sRGB">
<feFlood flood-opacity="0" result="BackgroundImageFix"/>
<feBlend mode="normal" in="SourceGraphic" in2="BackgroundImageFix" result="shape"/>
<feGaussianBlur stdDeviation="0.5" result="effect1_foregroundBlur_16980_3304"/>
</filter>
<filter id="filter26_f_16980_3304" x="1320.22" y="47.2246" width="11.3486" height="11.3489" filterUnits="userSpaceOnUse" color-interpolation-filters="sRGB">
<feFlood flood-opacity="0" result="BackgroundImageFix"/>
<feBlend mode="normal" in="SourceGraphic" in2="BackgroundImageFix" result="shape"/>
<feGaussianBlur stdDeviation="0.5" result="effect1_foregroundBlur_16980_3304"/>
</filter>
<filter id="filter27_f_16980_3304" x="1384.22" y="122.225" width="11.3486" height="11.3489" filterUnits="userSpaceOnUse" color-interpolation-filters="sRGB">
<feFlood flood-opacity="0" result="BackgroundImageFix"/>
<feBlend mode="normal" in="SourceGraphic" in2="BackgroundImageFix" result="shape"/>
<feGaussianBlur stdDeviation="0.5" result="effect1_foregroundBlur_16980_3304"/>
</filter>
</defs>
</svg>
